<svg width="146" height="135" viewBox="0 0 146 135" fill="none" xmlns="http://www.w3.org/2000/svg">
<path d="M71.4887 0.330521C70.8898 0.501617 70.0059 1.01489 69.4926 1.52818C68.8938 2.0985 56.1188 24.9965 34.3613 64.5762L0.142578 126.74V128.793C0.142578 130.419 0.256641 130.989 0.741406 131.616C1.56836 132.757 2.59492 133.441 3.87813 133.727C5.36094 134.097 140.639 134.097 142.122 133.727C143.405 133.441 144.432 132.757 145.259 131.616C145.743 130.989 145.857 130.419 145.857 128.793V126.74L111.81 64.8614C93.075 30.8137 77.477 2.58325 77.1063 2.0985C75.9656 0.530136 73.5133 -0.239792 71.4887 0.330521ZM102.571 69.7946L131.999 123.318L102.485 123.404C86.2598 123.432 59.7402 123.432 43.5148 123.404L14.0297 123.318L43.4293 69.7946C59.6262 40.3665 72.9145 16.2708 73 16.2708C73.0855 16.2708 86.3738 40.3665 102.571 69.7946Z" fill="#C60000"/>
<path d="M70.9184 45.7273C69.2645 46.3262 67.9812 47.4668 67.2684 48.9496L66.584 50.3184V70.1367V89.9551L67.2684 91.3238C69.5211 95.9148 76.4789 95.9148 78.7316 91.3238L79.416 89.9551L79.5016 70.9922C79.5586 58.2742 79.473 51.573 79.2734 50.6035C78.8742 48.693 77.8477 47.2387 76.3078 46.3262C74.7395 45.4137 72.4582 45.157 70.9184 45.7273Z" fill="#C60000"/>
<path d="M69.8918 101.96C64.7875 104.527 65.1012 112.026 70.4336 114.279C71.6883 114.792 74.3117 114.792 75.5664 114.279C78.7031 112.967 80.357 109.688 79.5586 106.38C78.8172 103.3 76.1938 101.219 73 101.219C71.8309 101.219 70.9754 101.418 69.8918 101.96Z" fill="#C60000"/>
</svg>
