<svg width="146" height="146" viewBox="0 0 146 146" fill="none" xmlns="http://www.w3.org/2000/svg">
<path d="M56.4609 10.9785L67.4395 21.957L36.9277 52.4688L6.41602 82.9805L10.4082 86.9727C12.6039 89.1684 14.5145 90.9648 14.6855 90.9648C15.0563 90.9648 83.8359 22.1852 83.8359 21.8145C83.8359 21.6719 81.5547 19.248 78.7887 16.482L73.7129 11.4062H104.168H134.594V41.8324V72.2871L129.518 67.2113C126.752 64.4453 124.328 62.1641 124.186 62.1641C123.815 62.1641 55.0352 130.944 55.0352 131.314C55.0352 131.486 56.8316 133.396 59.0273 135.592L63.0195 139.584L93.5312 109.072L124.043 78.5605L135.021 89.5391L146 100.518V50.2445V0H95.7555H45.4824L56.4609 10.9785Z" fill="#C60000"/>
<path d="M30.2266 91.3926L-0.142578 121.762L3.99219 125.896L8.12695 130.031L38.6387 99.5195L69.1504 69.0078L65.1582 65.0156C62.9625 62.8199 61.052 61.0234 60.8809 61.0234C60.7383 61.0234 46.9367 74.6824 30.2266 91.3926Z" fill="#C60000"/>
<path d="M46.3949 107.447L15.9688 137.873L20.1035 142.008L24.2383 146.143L54.6074 115.773C71.3176 99.0633 84.9766 85.2617 84.9766 85.1191C84.9766 84.834 77.2773 76.9922 76.9922 76.9922C76.9066 76.9922 63.1621 90.6797 46.3949 107.447Z" fill="#C60000"/>
</svg>
