<svg width="142" height="142" viewBox="0 0 142 142" fill="none" xmlns="http://www.w3.org/2000/svg">
<path d="M118.307 1.67851L117.48 2.50546V71V139.495L118.307 140.321L119.134 141.148H129.4H139.637L140.407 140.407L141.148 139.637V71V2.36288L140.407 1.59297L139.637 0.851562H129.4H119.134L118.307 1.67851Z" fill="#C60000"/>
<path d="M80.182 29.2246C78.3 30.0516 78.4141 26.1164 78.4141 85.1152C78.4141 142.517 78.357 140.065 79.7828 140.835C80.182 141.034 83.8035 141.148 90.5332 141.148H100.713L101.54 140.321L102.367 139.495V85.1437V30.793L101.54 29.8805L100.713 28.9395L90.9039 28.8824C82.891 28.8254 80.9519 28.8824 80.182 29.2246Z" fill="#C60000"/>
<path d="M40.6023 57.9969L39.6328 58.9664V99.2305V139.495L40.4598 140.321L41.2867 141.148H51.4668C58.1965 141.148 61.818 141.034 62.2172 140.835C63.643 140.065 63.5859 141.434 63.5859 99.0309C63.5859 59.9645 63.5859 59.4512 63.0156 58.5102C62.702 57.9969 62.1031 57.4551 61.7039 57.3125C61.3047 57.1414 56.8848 57.0273 51.2672 57.0273H41.5719L40.6023 57.9969Z" fill="#C60000"/>
<path d="M1.70703 86.0848L0.851562 86.9117V113.289V139.637L1.59297 140.407L2.36289 141.148H12.6H22.8656L23.6926 140.321L24.5195 139.495V113.232V86.9973L23.8352 86.1988L23.1508 85.4004L12.8281 85.3148L2.53398 85.2293L1.70703 86.0848Z" fill="#C60000"/>
</svg>
