<svg width="84" height="84" viewBox="0 0 84 84" fill="none" xmlns="http://www.w3.org/2000/svg">
<g clip-path="url(#clip0_4675_403)">
<path d="M41.5078 3.39609C41.3766 3.4453 32.0578 10.3852 20.8031 18.818C1.16484 33.5344 0.328125 34.1906 0.147656 34.8141C0.0492187 35.2242 0 36.832 0.0328125 39.0305C0.0820312 43.05 0.164062 43.3125 1.27969 43.657C1.88672 43.8375 2.21484 43.7555 3.33047 43.1812C3.39609 43.1484 3.44531 50.7609 3.44531 60.1125V77.1094H2.64141C0.754687 77.1094 0 77.618 0 78.8977C0 79.7344 0.360937 80.2922 1.09922 80.5711C1.64062 80.768 82.3594 80.768 82.9008 80.5711C84.0656 80.1281 84.3937 78.7008 83.5406 77.7492C83.1305 77.2898 82.9664 77.2242 81.9 77.1422L80.7188 77.0602V60.1125C80.7188 50.7773 80.7352 43.1484 80.768 43.1484C80.7844 43.1484 81.0961 43.2961 81.457 43.4766C82.2445 43.8703 82.6547 43.8867 83.1797 43.5258C83.9836 42.968 83.9836 42.968 83.9836 38.6367C84 34.9945 83.9672 34.5023 83.7047 34.1906C83.557 33.9937 81.6703 32.5336 79.5375 30.9258L75.6328 28.0219V20.6062C75.6328 13.568 75.6164 13.1742 75.3047 12.682C74.7961 11.8289 74.4023 11.7797 67.6266 11.8453L61.4906 11.8945L61.0148 12.4359C60.5555 12.9609 60.5391 13.0102 60.5391 14.7656C60.5391 15.7664 60.5062 16.5703 60.457 16.5703C60.4078 16.5703 56.4375 13.6172 51.6141 10.0078C42.8203 3.39609 42.3117 3.06796 41.5078 3.39609ZM61.2445 21.6727C71.7281 29.5477 80.3742 36.0281 80.4398 36.0937C80.5055 36.1594 80.5547 36.7008 80.5219 37.3078L80.4727 38.407L61.8023 24.3797C49.9242 15.4547 42.8859 10.2703 42.4922 10.1555C42 10.0078 41.7703 10.0078 41.4094 10.2047C41.0648 10.3687 5.82422 36.6844 3.80625 38.2758C3.64219 38.407 3.60937 38.2102 3.64219 37.275L3.69141 36.1102L22.8047 21.7547C33.3211 13.8469 41.9672 7.3828 42.0492 7.3828C42.1148 7.3828 50.7445 13.8141 61.2445 21.6727ZM59.7844 27.3164L77.2734 40.4414V58.7672V77.1094H64.6406H52.0078V61.8023V46.4953L51.6633 46.118C51.4828 45.9211 51.1383 45.6914 50.9086 45.593C50.3836 45.3961 33.6164 45.3961 33.0914 45.593C32.8617 45.6914 32.5172 45.9211 32.3367 46.118L31.9922 46.4953V61.8023V77.1094H19.4414H6.89062V58.7672V40.4414L24.4125 27.2836C34.043 20.0484 42 14.1422 42.0984 14.1586C42.1969 14.175 50.1539 20.0977 59.7844 27.3164ZM72.1875 20.4258V25.4297L68.0859 22.3617L63.9844 19.2773V17.3578V15.4219H68.0859H72.1875V20.4258ZM48.5625 63.082V77.1094H42H35.4375V63.082V49.0547H42H48.5625V63.082Z" fill="#C60000"/>
<path d="M40.7531 23.6251C37.2258 24.1665 34.4531 26.8243 33.6984 30.3845C32.5008 36.0118 37.5375 41.2782 43.2633 40.3923C46.725 39.8509 49.5469 37.1602 50.2852 33.7149C50.5805 32.2876 50.5805 31.7134 50.2852 30.3024C49.3664 25.9384 45.1172 22.9524 40.7531 23.6251ZM44.0836 27.5298C45.0352 28.022 45.7898 28.711 46.2328 29.5149L46.6102 30.1876H42H37.3898L37.6359 29.7118C38.2102 28.6126 39.1945 27.7759 40.507 27.2837C41.3602 26.972 43.2305 27.1032 44.0836 27.5298ZM46.282 34.404C45.8391 35.2899 45.0188 36.0118 43.9195 36.5204C41.7047 37.5212 38.8172 36.5532 37.718 34.404L37.4063 33.797H42H46.5938L46.282 34.404Z" fill="#C60000"/>
<path d="M12.8789 45.5929C12.6984 45.675 12.4031 45.9047 12.2227 46.1015C11.9109 46.4461 11.8945 46.725 11.8453 56.0273L11.8125 65.5922L11.3203 65.6906C10.7625 65.789 10.1719 66.6094 10.1719 67.2656C10.1719 67.9547 10.7461 68.7094 11.4352 68.9062C11.8617 69.0375 14.4867 69.0703 19.9008 69.0375L27.7594 68.9883L28.2516 68.4305C28.6945 67.9383 28.7437 67.7906 28.6617 67.118C28.5797 66.314 27.9891 65.625 27.382 65.625C27.0703 65.625 27.0703 65.4281 27.0703 56.1094V46.5937L26.5945 46.0687L26.1187 45.5273L19.6547 45.4945C16.1109 45.4781 13.0594 45.5273 12.8789 45.5929ZM23.625 50.6133V52.1719H19.4414H15.2578V50.6133V49.0547H19.4414H23.625V50.6133ZM23.625 60.539V65.4609H19.4414H15.2578V60.539V55.6172H19.4414H23.625V60.539Z" fill="#C60000"/>
<path d="M58.1438 45.6095C57.9469 45.6751 57.6352 45.954 57.4383 46.2001C57.0938 46.6431 57.0938 46.6759 57.0938 56.1259V65.6251H56.7492C56.5688 65.6251 56.1914 65.8384 55.9289 66.1009C55.2563 66.7736 55.2563 67.7087 55.9289 68.447L56.4047 68.9884L64.3781 69.0376C73.3523 69.0868 73.3031 69.0868 73.7625 67.9712C73.9758 67.479 73.9922 67.2493 73.8445 66.7571C73.6641 66.1501 73.0898 65.6251 72.5977 65.6251C72.3844 65.6251 72.3516 64.5751 72.3516 56.2736C72.3516 48.0868 72.3188 46.84 72.0891 46.4134C71.6133 45.4782 71.3344 45.4454 64.6078 45.4618C61.2445 45.4618 58.3242 45.5275 58.1438 45.6095ZM68.7422 50.6134V52.172H64.6406H60.5391V50.6134V49.0548H64.6406H68.7422V50.6134ZM68.7422 60.5392V65.4611H64.6406H60.5391V60.5392V55.6173H64.6406H68.7422V60.5392Z" fill="#C60000"/>
<path d="M38.2758 62.1304C38.0789 62.1632 37.7344 62.3929 37.5047 62.6226C36.8977 63.2132 36.8977 64.4109 37.4883 65.0179C38.7844 66.2976 40.9008 65.0507 40.3758 63.3116C40.1133 62.4257 39.2438 61.9335 38.2758 62.1304Z" fill="#C60000"/>
</g>
<defs>
<clipPath id="clip0_4675_403">
<rect width="84" height="84" fill="white"/>
</clipPath>
</defs>
</svg>
