<svg width="84" height="84" viewBox="0 0 84 84" fill="none" xmlns="http://www.w3.org/2000/svg">
<g clip-path="url(#clip0_4675_432)">
<path d="M0 42V84H30.5156H61.0312V78.1758V72.3516H57.0117H52.9922V74.1562V75.9609H30.5156H8.03906V73.8281V71.6953H14.4047C20.4422 71.6953 20.7867 71.6789 21.4922 71.3508C22.4766 70.9078 23.1 70.3008 23.5594 69.3164L23.9531 68.4961V57.9141V47.332L23.5594 46.5117C23.1 45.5273 22.4766 44.9203 21.4922 44.4773C20.7867 44.1492 20.4422 44.1328 14.4047 44.1328H8.03906V40.1953V36.2578H11.5664H15.0773L15.1266 35.3555L15.1758 34.4695L19.3266 37.9313C21.607 39.8344 23.543 41.3273 23.6086 41.2453C24.8719 39.7688 25.2984 39.1781 25.1672 39.0633C25.0852 38.9977 22.7883 37.0781 20.0648 34.7977L15.0937 30.6797V29.4492V28.2188H11.5664H8.03906V18.1289V8.03906H9.26953H10.5V11.5664V15.0938H12.3047H14.1094V17.5875C14.1094 20.9836 14.5031 22.1977 16.0617 23.7398C18.5227 26.168 22.4602 26.332 25.118 24.1336C25.8891 23.4938 26.857 22.05 27.1687 21.0492C27.3164 20.557 27.4477 19.2773 27.5133 17.6695L27.6117 15.0938H29.3016H31.0078V11.5664V8.03906H32.2383H33.4688V18.1289V28.2188H29.0391H24.6094V32.2383V36.2578H33.1406H41.6719V22.1484V8.03906H42.9023H44.1328V28.3828V48.7266H58.8164H73.5V28.3828V8.03906H74.7305H75.9609V30.5156V52.9922H64.4766H52.9922V58.6852V64.3945L50.4984 66.8883L47.9883 69.3984L48.9727 70.3828L49.957 71.3672L53.3203 68.0039L56.6836 64.6406H58.8656H61.0312V62.8359V61.0313H72.5156H84V30.5156V0H42H0V42ZM81.2109 30.5156V58.2422H69.7266H58.2422V60.0469V61.8516H57.0117H55.7812V58.8164V55.7813H67.2656H78.75V30.5156V5.25H58.8164H38.8828V19.3594V33.4688H33.2227H27.5625V32.2383V31.0078H31.9102H36.2578V18.1289V5.25H20.7539H5.25V18.1289V31.0078H8.77734H12.3047V32.2383V33.4688H8.77734H5.25V56.1094V78.75H30.5156H55.7812V77.0273V75.3047H57.0117H58.2422V78.2578V81.2109H30.5156H2.78906V42V2.78906H42H81.2109V30.5156ZM28.2187 10.1719V12.3047H20.7539H13.2891V10.1719V8.03906H20.7539H28.2187V10.1719ZM70.7109 13.6992V19.3594H58.8164H46.9219V13.6992V8.03906H58.8164H70.7109V13.6992ZM24.6094 17.5055C24.6094 20.2289 24.4453 20.8195 23.4445 21.7711C21.5086 23.6086 18.4078 23.018 17.2922 20.5898C16.9477 19.8516 16.8984 19.5398 16.8984 17.4234V15.0938H20.7539H24.6094V17.5055ZM70.7109 24.2813V26.4141H58.8164H46.9219V24.2813V22.1484H58.8164H70.7109V24.2813ZM70.7109 37.5703V45.9375H58.8164H46.9219V37.5703V29.2031H58.8164H70.7109V37.5703ZM12.3047 57.9141V68.9063H10.1719H8.03906V57.9141V46.9219H10.1719H12.3047V57.9141ZM20.4094 47.1023C21.2461 47.4797 21.3117 48.7922 20.5242 49.2023C20.3438 49.3172 19.1297 49.3828 17.6531 49.3828H15.0937V48.1523V46.9219H17.5547C19.0148 46.9219 20.1633 47.0039 20.4094 47.1023ZM21.1641 57.8648V63.7383L18.1289 63.6891L15.0937 63.6398V57.9141V52.1719L18.0961 52.1227C19.7367 52.1063 21.0984 52.0734 21.1312 52.0406C21.1477 52.0242 21.1641 54.6492 21.1641 57.8648ZM20.5242 66.6258C21.3117 67.0359 21.2461 68.3484 20.4094 68.7258C20.1633 68.8242 19.0148 68.9063 17.5547 68.9063H15.0937V67.6758V66.4453H17.6531C19.1297 66.4453 20.3438 66.5109 20.5242 66.6258Z" fill="#C60000"/>
<path d="M51.9258 8.85936C51.6469 8.94139 51.2039 9.2367 50.9414 9.51561L50.4492 10.0242V13.6992V17.3742L50.9414 17.8828C51.2039 18.1453 51.6961 18.457 52.0406 18.5555C52.4344 18.6539 55.0922 18.7031 59.1937 18.6703C66.4289 18.6211 66.2484 18.6375 66.9375 17.5055C67.2328 17.0297 67.2656 16.6687 67.2656 13.6992C67.2656 10.7297 67.2328 10.3687 66.9375 9.89295C66.2484 8.74452 66.4453 8.77733 59.0625 8.74452C55.4039 8.72811 52.1883 8.77733 51.9258 8.85936ZM64.4766 13.7812V15.914H58.8164H53.1562V13.7812V11.6484H58.8164H64.4766V13.7812Z" fill="#C60000"/>
<path d="M33.5508 50.4001C33.1078 50.4821 32.0414 50.8758 31.1883 51.286C26.0531 53.7797 23.9695 60.0469 26.5289 65.2805C26.9883 66.2157 27.4805 66.8555 28.4649 67.8399C30.3352 69.7102 32.1235 70.5961 34.6172 70.8751C37.0781 71.154 39.5719 70.5633 41.5735 69.218C43.5914 67.8727 44.9695 66.0352 45.7078 63.7547C46.0524 62.6719 46.1508 62.0977 46.1508 60.7032C46.1672 57.5696 45.2813 55.404 43.0828 53.2383C41.557 51.729 40.343 51.0071 38.4563 50.5313C37.0945 50.1704 35.011 50.1211 33.5508 50.4001ZM37.5539 53.2383C40.1789 53.8618 42.4266 56.0602 43.1485 58.718C43.4438 59.8172 43.3781 61.8024 43.0008 62.8688C41.393 67.5118 36.1102 69.4969 31.9266 67.036C31.057 66.5274 29.7938 65.2313 29.2524 64.3126C27.5789 61.3758 28.0711 57.7008 30.4828 55.3055C32.4352 53.3368 34.9125 52.6149 37.5539 53.2383Z" fill="#C60000"/>
<path d="M66.6094 70.3008V71.6953H68.0859H69.5625V70.3008V68.9063H68.0859H66.6094V70.3008Z" fill="#C60000"/>
<path d="M72.0234 70.3008V71.6953H73.418H74.8125V70.3008V68.9063H73.418H72.0234V70.3008Z" fill="#C60000"/>
<path d="M77.2734 70.3008V71.6953H78.668H80.0625V70.3008V68.9063H78.668H77.2734V70.3008Z" fill="#C60000"/>
</g>
<defs>
<clipPath id="clip0_4675_432">
<rect width="84" height="84" fill="white"/>
</clipPath>
</defs>
</svg>
