<svg width="84" height="84" viewBox="0 0 84 84" fill="none" xmlns="http://www.w3.org/2000/svg">
<g id="free-icon-water-supply-10695080 1 (traced)">
<g id="Black">
<path id="Vector" d="M30.6797 9.07278L21.9023 14.7001L21.8531 11.5829C21.8203 8.97434 21.7711 8.41653 21.5414 8.17044C21.2953 7.90794 20.9179 7.87513 17.3086 7.87513C13.6664 7.87513 13.3219 7.90794 13.0758 8.17044C12.8297 8.44935 12.7969 9.1384 12.7969 14.5361L12.7804 20.59L9.61404 22.6079C7.85857 23.7236 6.11951 24.8392 5.75857 25.1181L5.08592 25.5939V29.6954C5.08592 33.5837 5.10232 33.8134 5.41404 34.1251C6.03748 34.7486 6.51326 34.5517 9.74529 32.4845L12.7969 30.5322V34.6829V38.8501L8.58045 38.9157L4.34764 38.965L3.28123 39.4736C2.03436 40.0642 1.13201 40.9337 0.52498 42.0822L0.0820114 42.9025L0.0327926 59.4728C-0.0164261 77.6509 -0.0656449 76.6501 0.984355 78.1759C1.26326 78.5861 1.8867 79.1767 2.34607 79.4884C4.05232 80.604 3.06795 80.5712 24.7078 80.522L44.2148 80.4728L45.1664 80.0954C46.2984 79.6361 47.5289 78.4876 48.0539 77.4048C48.5953 76.2728 48.7265 75.0095 48.7265 70.5798V66.6095H57.4711C62.2617 66.6095 66.2812 66.5439 66.3797 66.4782C66.9047 66.1337 66.9375 65.6251 66.9375 57.4712V49.2845L67.7906 48.7267C68.3812 48.3329 68.775 47.9064 69.0539 47.365L69.4476 46.5939H70.8093H72.1875V48.94V51.3025L71.5476 51.5978C70.7437 51.9587 70.3172 52.4017 69.9726 53.1892C69.4312 54.5017 69.8086 56.0931 70.8586 56.979C71.6461 57.6353 72.7945 57.7829 76.5023 57.7173C80.2429 57.6681 80.6859 57.5533 81.6047 56.3884C82.0148 55.8798 82.1133 55.5845 82.1625 54.7314C82.2609 53.1728 81.6047 52.09 80.2429 51.5158L79.7508 51.3189L79.7015 47.2009L79.6523 43.0665L79.1929 42.1478C78.7008 41.1306 77.6672 40.0806 76.65 39.5556C75.7312 39.0798 74.2547 38.8829 71.6789 38.8829H69.4476L69.0539 38.0954C68.775 37.5704 68.3812 37.1439 67.7906 36.7501L66.9375 36.1923V33.4361C66.9375 31.9267 66.9703 30.6798 67.0195 30.6798C67.0523 30.6798 68.414 31.5329 70.0219 32.5665C71.8101 33.715 73.1226 34.4533 73.3687 34.4533C73.5984 34.4533 73.9594 34.3056 74.1726 34.1415C74.5664 33.8298 74.5664 33.797 74.6156 30.0072C74.6484 27.5462 74.5992 26.0532 74.4844 25.7743C74.3531 25.4462 70.5797 22.9525 59.6039 15.9142C39.5062 3.01888 40.1789 3.44544 39.8015 3.44544C39.6047 3.44544 35.5031 5.98841 30.6797 9.07278ZM52.7625 14.4376C59.7023 18.9001 66.8883 23.5103 68.7422 24.6915L72.1054 26.8572L72.1547 28.9572L72.2039 31.0572L71.8265 30.8111C69.4968 29.2853 40.6383 10.8118 40.3594 10.6642C40.1625 10.5658 39.8344 10.5001 39.6375 10.5329C39.457 10.5822 32.3531 15.0611 23.8711 20.5079C15.389 25.9548 8.2031 30.5486 7.90779 30.729L7.38279 31.0407V28.99V26.9392L23.5101 16.5868C32.3695 10.8939 39.7359 6.26731 39.8836 6.30013C40.0312 6.33294 45.8226 9.99153 52.7625 14.4376ZM19.4906 13.2236L19.4414 16.2915L17.5547 17.5056C16.5211 18.1782 15.5367 18.7853 15.389 18.8837C15.1101 19.0314 15.0937 18.7853 15.0937 14.6017V10.172H17.3086H19.5234L19.4906 13.2236ZM52.1719 21.1314L64.3945 28.9572L64.4437 32.6978C64.4601 34.765 64.4109 36.422 64.3453 36.422C64.0172 36.422 62.6719 37.7837 62.475 38.3087C62.2945 38.8501 62.2289 38.8829 61.507 38.8829H60.7523L60.6539 37.997C60.4898 36.3728 59.7679 35.7658 57.9961 35.7658H56.9297V34.2072V32.6486H58.8164H60.7031V31.4181V30.1876H55.6992H50.6953V31.4181V32.6486H52.582H54.4687V34.1908V35.7329L53.2383 35.7986C52.1062 35.8478 51.9586 35.897 51.4828 36.3728C51.0398 36.8158 50.9578 37.0454 50.8922 37.8657L50.8265 38.8337L48.1687 38.9322C46.3476 38.9814 45.314 39.0962 44.8218 39.2603C43.7226 39.6704 42.689 40.4743 42.082 41.3931C41.0156 43.0009 41.0156 43.0829 41.0156 54.2556V64.3126H38.8828H36.75V52.0243C36.75 40.179 36.7336 39.7197 36.4383 39.3587L36.1265 38.965H28.1695C20.5734 38.965 20.1961 38.9814 19.8679 39.2767C19.5234 39.5884 19.5234 39.5884 19.5234 51.9587V64.3126H17.3086H15.0937L15.1265 46.6595L15.1758 29.0064L27.3984 21.1478C34.125 16.8329 39.7031 13.3056 39.7851 13.2892C39.8836 13.2892 45.4617 16.8165 52.1719 21.1314ZM58.2422 42.7384V47.4142H55.6992H53.1562V42.7384V38.0626H55.6992H58.2422V42.7384ZM66.4617 38.7681C67.0359 39.1947 67.1015 39.654 67.1015 42.7384C67.1015 44.74 67.0359 45.9212 66.9047 46.1509C66.4617 47.004 65.6742 47.1517 65.0508 46.5118C64.6406 46.1181 64.6406 46.1017 64.6406 42.7384C64.6406 39.3751 64.6406 39.3587 65.0508 38.965C65.4773 38.522 66.0515 38.44 66.4617 38.7681ZM12.7969 42.722V44.1165L9.7781 44.1657C6.46404 44.215 6.31639 44.2642 5.51248 45.347C5.16795 45.79 5.16795 45.9212 5.16795 59.7189C5.16795 73.5822 5.16795 73.6478 5.51248 74.1072C5.69295 74.3533 6.10311 74.7306 6.39842 74.9439L6.93982 75.3048H24.2812H41.6226L42.164 74.9439C42.4594 74.7306 42.8695 74.3533 43.05 74.1072C43.3945 73.6478 43.3945 73.5329 43.4765 58.6853C43.575 42.2134 43.4929 43.3126 44.5758 42.2954C45.4125 41.4915 46.0359 41.3439 48.5625 41.3439H50.8594V42.722V44.1001L49.3992 44.1657C47.775 44.215 47.3156 44.4282 46.6429 45.4454L46.2656 45.9868V60.654C46.2656 76.6829 46.3148 75.9447 45.314 77.0111C45.0679 77.2736 44.5758 77.6181 44.2148 77.7822C43.5914 78.0775 42.7054 78.0939 24.2812 78.0939C5.98826 78.0939 4.97107 78.0775 4.34764 77.7822C3.51092 77.4048 2.6906 76.4861 2.47732 75.6822C2.23123 74.8126 2.23123 44.6251 2.47732 43.7556C2.6906 42.9517 3.51092 42.0329 4.34764 41.6556C4.92185 41.3931 5.47967 41.3439 8.90857 41.3439H12.7969V42.722ZM34.289 52.8283V64.3126H28.0547H21.8203V52.8283V41.3439H28.0547H34.289V52.8283ZM62.1797 42.7384V44.1329H61.4414H60.7031V42.7384V41.3439H61.4414H62.1797V42.7384ZM75.8297 41.9181C76.207 42.197 76.6992 42.722 76.8961 43.0665C77.257 43.69 77.2734 43.8868 77.2734 47.529V51.3517H75.9773H74.6812L74.6156 48.6775C74.5664 45.6423 74.4023 45.1665 73.2375 44.5103C72.6961 44.1986 72.3515 44.1329 71.0062 44.1329H69.3984V42.722V41.3111L72.2531 41.3767L75.1078 41.4259L75.8297 41.9181ZM12.7969 56.3064C12.7969 65.1001 12.8297 66.0353 13.0758 66.3142C13.3219 66.5931 13.9781 66.6095 27.1851 66.6095H41.0156L40.9828 69.7595L40.9336 72.9259H24.2812H7.62889L7.57967 59.7517L7.54685 46.5939H10.1719H12.7969V56.3064ZM50.8922 47.5783C50.9578 48.4314 51.0398 48.6611 51.4828 49.104L52.0078 49.629L55.4859 49.6783C57.8976 49.7111 59.0953 49.6783 59.4234 49.5306C60.1125 49.2517 60.5554 48.5298 60.6539 47.4962L60.7523 46.5939H61.507C62.2289 46.5939 62.2945 46.6267 62.475 47.1681C62.6719 47.6931 64.0172 49.0548 64.3289 49.0548C64.4109 49.0548 64.4765 52.4837 64.4765 56.6837V64.3126H56.6015H48.7265V55.4533V46.5939H49.7765H50.8265L50.8922 47.5783ZM79.5703 53.9767C79.7508 54.1572 79.8984 54.3704 79.8984 54.4689C79.8984 54.5509 79.7508 54.7806 79.5703 54.9611C79.2586 55.2728 79.0289 55.2892 76.0265 55.2892C74.1398 55.2892 72.6961 55.2236 72.4992 55.1251C72.089 54.8954 72.0726 54.0587 72.4828 53.829C72.6469 53.7306 74.107 53.6486 76.0101 53.6486C79.0289 53.6486 79.2586 53.665 79.5703 53.9767Z" fill="#C60000"/>
<path id="Vector_2" d="M30.3516 52.8281V53.9766H31.2539H32.1562V52.8281V51.6797H31.2539H30.3516V52.8281Z" fill="#C60000"/>
<path id="Vector_3" d="M75.5508 61.5235C75.3703 61.5891 73.8773 63.0164 72.2531 64.6735C68.4797 68.4797 67.9219 69.4641 67.9219 72.45C67.9219 78.0282 73.3523 81.8836 78.6516 80.0625C80.7352 79.3571 82.3266 77.8969 83.3273 75.7969C83.8687 74.6485 83.918 74.4352 83.9672 72.7617C84.0328 70.7274 83.7375 69.4805 82.8516 68.086C82.2609 67.1672 76.65 61.5891 76.207 61.4742C76.0266 61.425 75.7312 61.4414 75.5508 61.5235ZM78.3891 66.8227C80.85 69.3 81.3914 70.1367 81.6211 71.7117C81.9492 73.9594 80.6203 76.4039 78.5039 77.4539C75.1898 79.0781 71.3672 77.3063 70.4484 73.6805C70.1531 72.4992 70.2188 71.6297 70.7437 70.2188C71.0391 69.4641 71.4656 68.9391 73.4672 66.8883C74.7797 65.5594 75.8953 64.4766 75.9609 64.4766C76.0102 64.4766 77.1094 65.5266 78.3891 66.8227Z" fill="#C60000"/>
</g>
</g>
</svg>
